<svg width="54" height="54" viewBox="0 0 54 54" fill="none" xmlns="http://www.w3.org/2000/svg">
<mask id="mask0_1466_144" style="mask-type:alpha" maskUnits="userSpaceOnUse" x="0" y="0" width="54" height="54">
<rect width="54" height="54" rx="10" fill="#2F3645"/>
</mask>
<g mask="url(#mask0_1466_144)">
<path d="M42.525 45.675L33.0725 36.2225C31.2806 34.4306 28.4288 34.3563 26.0437 35.2125C24.5812 35.7375 23.025 36 21.375 36C17.2875 36 13.8285 34.5847 10.998 31.7542C8.166 28.9222 6.75 25.4625 6.75 21.375C6.75 17.2875 8.166 13.8278 10.998 10.9958C13.8285 8.16525 17.2875 6.75 21.375 6.75C25.4625 6.75 28.9222 8.16525 31.7542 10.9958C34.5847 13.8278 36 17.2875 36 21.375C36 23.025 35.7375 24.5812 35.2125 26.0437C34.3563 28.4288 34.4306 31.2806 36.2225 33.0725L45.7313 42.5812C46.1437 42.9937 46.35 43.5 46.35 44.1C46.35 44.7 46.125 45.225 45.675 45.675C45.2625 46.0875 44.7375 46.2938 44.1 46.2938C43.4625 46.2938 42.9375 46.0875 42.525 45.675ZM21.375 31.5C24.1875 31.5 26.5785 30.516 28.548 28.548C30.516 26.5785 31.5 24.1875 31.5 21.375C31.5 18.5625 30.516 16.1715 28.548 14.202C26.5785 12.234 24.1875 11.25 21.375 11.25C18.5625 11.25 16.1715 12.234 14.202 14.202C12.234 16.1715 11.25 18.5625 11.25 21.375C11.25 24.1875 12.234 26.5785 14.202 28.548C16.1715 30.516 18.5625 31.5 21.375 31.5Z" fill="#2F3645"/>
</g>
</svg>
