<svg width="45" height="40" viewBox="0 0 45 40" fill="none" xmlns="http://www.w3.org/2000/svg">
<mask id="mask0_1466_185" style="mask-type:alpha" maskUnits="userSpaceOnUse" x="0" y="0" width="45" height="40">
<rect x="0.324951" width="44.0767" height="40" fill="#D9D9D9"/>
</mask>
<g mask="url(#mask0_1466_185)">
<path d="M35.0353 33.8333L24.7507 24.5C23.8324 25.1667 22.7764 25.6944 21.5827 26.0833C20.389 26.4722 19.1187 26.6667 17.7719 26.6667C14.4355 26.6667 11.6122 25.6183 9.30184 23.5217C6.99026 21.4239 5.83447 18.8611 5.83447 15.8333C5.83447 12.8056 6.99026 10.2428 9.30184 8.145C11.6122 6.04833 14.4355 5 17.7719 5C21.1083 5 23.9322 6.04833 26.2438 8.145C28.5542 10.2428 29.7093 12.8056 29.7093 15.8333C29.7093 17.0556 29.4951 18.2083 29.0665 19.2917C28.638 20.375 28.0565 21.3333 27.3218 22.1667L37.6523 31.5417C37.989 31.8472 38.1574 32.2222 38.1574 32.6667C38.1574 33.1111 37.9737 33.5 37.6064 33.8333C37.2697 34.1389 36.8412 34.2917 36.3208 34.2917C35.8005 34.2917 35.372 34.1389 35.0353 33.8333ZM17.7719 23.3333C20.0676 23.3333 22.0192 22.6044 23.6267 21.1467C25.2331 19.6878 26.0363 17.9167 26.0363 15.8333C26.0363 13.75 25.2331 11.9789 23.6267 10.52C22.0192 9.06222 20.0676 8.33333 17.7719 8.33333C15.4762 8.33333 13.5246 9.06222 11.9171 10.52C10.3107 11.9789 9.50753 13.75 9.50753 15.8333C9.50753 17.9167 10.3107 19.6878 11.9171 21.1467C13.5246 22.6044 15.4762 23.3333 17.7719 23.3333Z" fill="#939185"/>
</g>
</svg>
