<svg width="40" height="40" viewBox="0 0 40 40" fill="none" xmlns="http://www.w3.org/2000/svg">
<mask id="mask0_1321_66" style="mask-type:alpha" maskUnits="userSpaceOnUse" x="0" y="0" width="40" height="40">
<rect width="40" height="40" fill="#D9D9D9"/>
</mask>
<g mask="url(#mask0_1321_66)">
<path d="M4.54203 28.875C4.26403 28.625 4.13203 28.3193 4.14603 27.958C4.16003 27.5973 4.29203 27.292 4.54203 27.042L14.667 16.875C14.8057 16.7363 14.9514 16.632 15.104 16.562C15.2567 16.4927 15.4164 16.458 15.583 16.458C15.7777 16.458 15.9444 16.4927 16.083 16.562C16.2224 16.632 16.3754 16.7363 16.542 16.875L22.375 22.708L32.042 13.125H28.333C27.9724 13.125 27.667 13 27.417 12.75C27.167 12.5 27.042 12.1943 27.042 11.833C27.042 11.4443 27.167 11.125 27.417 10.875C27.667 10.625 27.9724 10.5 28.333 10.5H35.125C35.4864 10.5 35.7987 10.625 36.062 10.875C36.326 11.125 36.458 11.4307 36.458 11.792V18.583C36.458 18.9443 36.326 19.257 36.062 19.521C35.7987 19.785 35.4864 19.917 35.125 19.917C34.7917 19.917 34.493 19.785 34.229 19.521C33.965 19.257 33.833 18.9443 33.833 18.583V15.042L23.292 25.583C23.1527 25.7223 23.0067 25.8197 22.854 25.875C22.7014 25.9303 22.5417 25.958 22.375 25.958C22.1804 25.958 22.0137 25.9303 21.875 25.875C21.7364 25.8197 21.5974 25.7223 21.458 25.583L15.583 19.708L6.37503 28.917C6.12503 29.167 5.81936 29.292 5.45803 29.292C5.09736 29.292 4.79203 29.153 4.54203 28.875Z" fill="#939185"/>
</g>
</svg>
