<svg width="45" height="40" viewBox="0 0 45 40" fill="none" xmlns="http://www.w3.org/2000/svg">
<mask id="mask0_1466_189" style="mask-type:alpha" maskUnits="userSpaceOnUse" x="0" y="0" width="45" height="40">
<rect x="0.324951" width="44.0767" height="40" fill="#D9D9D9"/>
</mask>
<g mask="url(#mask0_1466_189)">
<path d="M5.3298 28.875C5.02347 28.625 4.87802 28.3193 4.89344 27.958C4.90887 27.5973 5.05432 27.292 5.3298 27.042L16.4867 16.875C16.6395 16.7363 16.8 16.632 16.9682 16.562C17.1365 16.4927 17.3124 16.458 17.4961 16.458C17.7106 16.458 17.8942 16.4927 18.047 16.562C18.2006 16.632 18.3691 16.7363 18.5528 16.875L24.9803 22.708L35.6325 13.125H31.5455C31.1481 13.125 30.8116 13 30.5361 12.75C30.2607 12.5 30.1229 12.1943 30.1229 11.833C30.1229 11.4443 30.2607 11.125 30.5361 10.875C30.8116 10.625 31.1481 10.5 31.5455 10.5H39.0297C39.4279 10.5 39.772 10.625 40.0622 10.875C40.3531 11.125 40.4986 11.4307 40.4986 11.792V18.583C40.4986 18.9443 40.3531 19.257 40.0622 19.521C39.772 19.785 39.4279 19.917 39.0297 19.917C38.6624 19.917 38.3333 19.785 38.0424 19.521C37.7515 19.257 37.606 18.9443 37.606 18.583V15.042L25.9907 25.583C25.8372 25.7223 25.6763 25.8197 25.5081 25.875C25.3399 25.9303 25.1639 25.958 24.9803 25.958C24.7658 25.958 24.5821 25.9303 24.4293 25.875C24.2765 25.8197 24.1234 25.7223 23.9698 25.583L17.4961 19.708L7.34962 28.917C7.07414 29.167 6.73732 29.292 6.33916 29.292C5.94173 29.292 5.60528 29.153 5.3298 28.875Z" fill="#939185"/>
</g>
</svg>
